# xmcd
#
# Track frame offsets:
#	150
#	11085
#	25016
#	38889
#	52479
#	64293
#	78446
#	89546
#	104672
#	115890
#	130494
#	144646
#	156769
#	175343
#
# Disc length: 2579 seconds
#
# Revision: 2
# Processed by: cddbd v1.5.2PL0 Copyright (c) Steve Scherf et al.
# Submitted via: EasyCDDAExtractor 16.0.6.1
#
DISCID=cc0a110e
DTITLE=Συλλογικός δίσκος - Ανατολικά του Αιγαίου
DYEAR=1997
DGENRE=Παραδοσιακή
TTITLE0=Άνευ ερμηνευτού - Μαζεμένος [οργανικό, χασάπ. Μυτιλήνης]
TTITLE1=Άνευ ερμηνευτού - Αζιζιές [οργανικό, χιώτικος]
TTITLE2=Άνευ ερμηνευτού - Βρακάδικος [οργανικό, ζεϊμπ. Σαμοθράκης]
TTITLE3=Οικονομίδης Νίκος - Πλατανιώτικος [συρτός Σάμου]
TTITLE4=Άνευ ερμηνευτού - Πυργούσικος [οργανικό, Πυργί Χίου]
TTITLE5=Φακίρη-Σούτη Λουλούδη - Αβάς [αποκριάτικο Σάμου]
TTITLE6=Άνευ ερμηνευτού - Σιγανός-Τρεάτος [τσαμπούνα, Άγ. Γεώργιος Συκούσης Χί
TTITLE6=ος]
TTITLE7=Άνευ ερμηνευτού - Πάτημα [οργανικό, πηδηχτός Λήμνου]
TTITLE8=Φακίρη-Σούτη Λουλούδη - Σχοινιάτικος (Της Μαστίχας)[Νοτιόχωρα Χίου]
TTITLE9=Οικονομίδης Νίκος - Συμπεθερκάτος [συρτός Λήμνου]
TTITLE10=Άνευ ερμηνευτού - Τα ξύλα [οργανικό, συρτός Μυτιλήνης]
TTITLE11=Άνευ ερμηνευτού - Καρεκλάδικος (Αϊσε)[οργανικό, Αντικρυστός Μυτιλήνης
TTITLE11=]
TTITLE12=Οικονομίδης Νίκος-Κλούβας Γιώργος - Τρίπατος (Νενητούσικος)[χωριό Νέν
TTITLE12=ητα Χίου]
TTITLE13=Άνευ ερμηνευτού - Ικαριώτικος (Παλαιός)[οργανικό Ικαρίας]
EXTD=
EXTT0=
EXTT1=
EXTT2=
EXTT3=
EXTT4=
EXTT5=
EXTT6=
EXTT7=
EXTT8=
EXTT9=
EXTT10=
EXTT11=
EXTT12=
EXTT13=
PLAYORDER=
